<svg width="24" height="22" viewBox="0 0 24 22" fill="none" xmlns="http://www.w3.org/2000/svg">
<path d="M17.6703 19.0942C17.6703 19.6893 18.1527 20.1717 18.7478 20.1717H21.1814C21.7765 20.1717 22.2589 19.6893 22.2589 19.0942V16.9393C22.2589 16.3442 21.7765 15.8618 21.1814 15.8618H18.7478C18.1527 15.8618 17.6703 16.3442 17.6703 16.9393V19.0942ZM17.6703 12.6294C17.6703 13.2245 18.1527 13.7069 18.7478 13.7069H21.1814C21.7765 13.7069 22.2589 13.2245 22.2589 12.6294V10.4744C22.2589 9.87937 21.7765 9.39697 21.1814 9.39697H18.7478C18.1527 9.39697 17.6703 9.87937 17.6703 10.4744V12.6294ZM10.7874 6.16455C10.7874 6.75962 11.2698 7.24202 11.8649 7.24202H14.2985C14.8936 7.24202 15.376 6.75962 15.376 6.16455V4.0096C15.376 3.41453 14.8936 2.93213 14.2985 2.93213H11.8649C11.2698 2.93213 10.7874 3.41453 10.7874 4.0096V6.16455ZM17.6703 6.16455C17.6703 6.75962 18.1527 7.24202 18.7478 7.24202H21.1814C21.7765 7.24202 22.2589 6.75962 22.2589 6.16455V4.0096C22.2589 3.41453 21.7765 2.93213 21.1814 2.93213H18.7478C18.1527 2.93213 17.6703 3.41453 17.6703 4.0096V6.16455ZM10.7874 12.6294C10.7874 13.2245 11.2698 13.7069 11.8649 13.7069H14.2985C14.8936 13.7069 15.376 13.2245 15.376 12.6294V10.4744C15.376 9.87937 14.8936 9.39697 14.2985 9.39697H11.8649C11.2698 9.39697 10.7874 9.87937 10.7874 10.4744V12.6294ZM3.90454 12.6294C3.90454 13.2245 4.38694 13.7069 4.98201 13.7069H7.41565C8.01073 13.7069 8.49313 13.2245 8.49313 12.6294V10.4744C8.49313 9.87937 8.01073 9.39697 7.41565 9.39697H4.98201C4.38694 9.39697 3.90454 9.87937 3.90454 10.4744V12.6294ZM3.90454 19.0942C3.90454 19.6893 4.38694 20.1717 4.98201 20.1717H7.41565C8.01073 20.1717 8.49313 19.6893 8.49313 19.0942V16.9393C8.49313 16.3442 8.01073 15.8618 7.41565 15.8618H4.98201C4.38694 15.8618 3.90454 16.3442 3.90454 16.9393V19.0942ZM10.7874 19.0942C10.7874 19.6893 11.2698 20.1717 11.8649 20.1717H14.2985C14.8936 20.1717 15.376 19.6893 15.376 19.0942V16.9393C15.376 16.3442 14.8936 15.8618 14.2985 15.8618H11.8649C11.2698 15.8618 10.7874 16.3442 10.7874 16.9393V19.0942ZM3.90454 6.16455C3.90454 6.75962 4.38694 7.24202 4.98201 7.24202H7.41565C8.01073 7.24202 8.49313 6.75962 8.49313 6.16455V4.0096C8.49313 3.41453 8.01073 2.93213 7.41565 2.93213H4.98201C4.38694 2.93213 3.90454 3.41453 3.90454 4.0096V6.16455Z" fill="#C0C0C0"/>
</svg>
