<svg width="24" height="22" viewBox="0 0 24 22" fill="none" xmlns="http://www.w3.org/2000/svg">
<path d="M5.50926 20.0374H18.5602C19.5884 20.0374 20.4246 19.232 20.4246 18.2416V10.1606C20.4247 10.0427 20.4007 9.92587 20.3538 9.81693C20.3069 9.70799 20.2382 9.60904 20.1515 9.52577L12.6938 2.34261C12.6073 2.25915 12.5046 2.19295 12.3915 2.14777C12.2784 2.1026 12.1572 2.07935 12.0347 2.07935C11.9123 2.07935 11.7911 2.1026 11.678 2.14777C11.5649 2.19295 11.4621 2.25915 11.3757 2.34261L3.91797 9.52577C3.83128 9.60904 3.76252 9.70799 3.71565 9.81693C3.66878 9.92587 3.64471 10.0427 3.64484 10.1606V18.2416C3.64484 19.232 4.48103 20.0374 5.50926 20.0374V20.0374ZM10.1703 18.2416V13.7522H13.8991V18.2416H10.1703ZM5.50926 10.5323L12.0347 4.24705L18.5602 10.5323L18.5611 18.2416H15.7636V13.7522C15.7636 12.7618 14.9274 11.9564 13.8991 11.9564H10.1703C9.14208 11.9564 8.30589 12.7618 8.30589 13.7522V18.2416H5.50926V10.5323Z" fill="#70D140"/>
</svg>
