<svg width="12" height="12" viewBox="0 0 12 12" fill="none" xmlns="http://www.w3.org/2000/svg">
<path d="M5.43201 7.44939H6.57476V8.59214H5.43201V7.44939ZM5.43201 2.87837H6.57476V6.30663H5.43201V2.87837ZM5.99767 0.0214844C2.84367 0.0214844 0.289612 2.58125 0.289612 5.73526C0.289612 8.88926 2.84367 11.449 5.99767 11.449C9.15739 11.449 11.7172 8.88926 11.7172 5.73526C11.7172 2.58125 9.15739 0.0214844 5.99767 0.0214844ZM6.00339 10.3063C3.4779 10.3063 1.43237 8.26075 1.43237 5.73526C1.43237 3.20977 3.4779 1.16424 6.00339 1.16424C8.52887 1.16424 10.5744 3.20977 10.5744 5.73526C10.5744 8.26075 8.52887 10.3063 6.00339 10.3063Z" fill="#8C69EE"/>
</svg>
