<svg width="15" height="14" viewBox="0 0 15 14" fill="none" xmlns="http://www.w3.org/2000/svg">
<path d="M7.17713 0.935129C7.31396 0.513996 7.90975 0.513995 8.04659 0.935128L9.30518 4.80869C9.36638 4.99702 9.54189 5.12454 9.73991 5.12454H13.8128C14.2556 5.12454 14.4397 5.69117 14.0815 5.95144L10.7864 8.34543C10.6262 8.46183 10.5592 8.66815 10.6204 8.85649L11.879 12.73C12.0158 13.1512 11.5338 13.5014 11.1756 13.2411L7.88054 10.8471C7.72033 10.7307 7.50339 10.7307 7.34318 10.8471L4.04814 13.2411C3.6899 13.5014 3.20789 13.1512 3.34473 12.73L4.60332 8.85649C4.66452 8.66815 4.59748 8.46183 4.43727 8.34543L1.14223 5.95144C0.78399 5.69117 0.968099 5.12454 1.4109 5.12454H5.4838C5.68183 5.12454 5.85734 4.99702 5.91853 4.80869L7.17713 0.935129Z" fill="#FEF499"/>
</svg>
